<svg xmlns="http://www.w3.org/2000/svg" viewBox="0 0 860 620"><defs><filter id="s" x="-50%" y="-50%" width="200%" height="200%"><feDropShadow dx="0" dy="14" stdDeviation="14" flood-opacity=".14"/></filter></defs><g filter="url(#s)" fill="none" stroke-linecap="round"><path d="M60 500 C170 75 410 125 520 410 C560 515 690 520 805 285" stroke="#e95f62" stroke-width="74"/><path d="M76 500 C182 112 397 158 493 419 C525 505 655 505 780 280" stroke="#f1cf4f" stroke-width="52"/><path d="M93 501 C190 147 382 188 468 426 C495 490 620 488 755 279" stroke="#73c6cc" stroke-width="31"/><path d="M114 500 C200 183 367 217 445 430 C465 475 588 468 728 281" stroke="#866bc7" stroke-width="14"/></g><g fill="#fff" opacity=".72"><circle cx="102" cy="405" r="4"/><circle cx="150" cy="267" r="4"/><circle cx="237" cy="160" r="4"/><circle cx="350" cy="175" r="4"/><circle cx="457" cy="295" r="4"/><circle cx="517" cy="445" r="4"/><circle cx="642" cy="443" r="4"/><circle cx="723" cy="337" r="4"/></g></svg>