<svg xmlns="http://www.w3.org/2000/svg" viewBox="0 0 600 600"><defs><filter id="s" x="-50%" y="-50%" width="200%" height="200%"><feDropShadow dx="0" dy="14" stdDeviation="14" flood-opacity=".14"/></filter></defs><rect width="600" height="600" fill="#f2e9e2"/><g filter="url(#s)" transform="translate(35 45)"><g transform="rotate(-18 150 260)"><rect x="98" y="92" width="115" height="360" rx="56" fill="#f681a8"/><circle cx="155" cy="136" r="40" fill="#fbd6e2" opacity=".75"/><rect x="119" y="183" width="74" height="92" rx="35" fill="#ffd7e4" opacity=".28"/></g><g transform="translate(160 5) rotate(15 180 260)"><rect x="130" y="110" width="118" height="355" rx="58" fill="#73c8dc"/><circle cx="190" cy="155" r="40" fill="#d8f3f8" opacity=".8"/><rect x="153" y="205" width="75" height="95" rx="36" fill="#e7fafd" opacity=".35"/></g><g transform="translate(305 55) rotate(-7 140 240)"><rect x="90" y="110" width="112" height="335" rx="55" fill="#f17ca4"/><circle cx="146" cy="154" r="38" fill="#ffe4ec" opacity=".75"/></g></g><g fill="#fff" opacity=".85"><circle cx="130" cy="170" r="3"/><circle cx="155" cy="210" r="3"/><circle cx="185" cy="280" r="3"/><circle cx="320" cy="180" r="3"/><circle cx="350" cy="230" r="3"/><circle cx="402" cy="310" r="3"/><circle cx="468" cy="218" r="3"/><circle cx="455" cy="355" r="3"/><circle cx="285" cy="425" r="3"/></g></svg>