<svg xmlns="http://www.w3.org/2000/svg" viewBox="0 0 700 620"><defs><filter id="s" x="-50%" y="-50%" width="200%" height="200%"><feDropShadow dx="0" dy="14" stdDeviation="14" flood-opacity=".14"/></filter></defs><g filter="url(#s)"><g transform="translate(70 80) rotate(-16 155 260)"><rect x="86" y="70" width="144" height="415" rx="70" fill="#f47ca6"/><ellipse cx="158" cy="130" rx="48" ry="50" fill="#ffc8db" opacity=".7"/></g><g transform="translate(235 25) rotate(13 175 280)"><rect x="110" y="95" width="150" height="430" rx="74" fill="#65c4dd"/><ellipse cx="185" cy="158" rx="50" ry="52" fill="#ddf7fc" opacity=".8"/></g><g transform="translate(395 105) rotate(-5 135 245)"><rect x="75" y="80" width="130" height="390" rx="64" fill="#f47da8"/><ellipse cx="140" cy="140" rx="45" ry="47" fill="#ffe4ee" opacity=".7"/></g></g><g fill="#fff" opacity=".84"><circle cx="140" cy="220" r="4"/><circle cx="175" cy="298" r="4"/><circle cx="217" cy="370" r="4"/><circle cx="350" cy="192" r="4"/><circle cx="375" cy="278" r="4"/><circle cx="405" cy="390" r="4"/><circle cx="510" cy="240" r="4"/><circle cx="535" cy="340" r="4"/><circle cx="295" cy="465" r="4"/></g></svg>